<svg width="24" height="24" viewBox="0 0 24 24" fill="none" xmlns="http://www.w3.org/2000/svg">
<path d="M5.4375 0.125C6.13515 0.125 6.82597 0.262412 7.47051 0.52939C8.11505 0.796368 8.7007 1.18768 9.19401 1.681C9.68732 2.17431 10.0786 2.75995 10.3456 3.40449C10.6126 4.04904 10.75 4.73985 10.75 5.4375V10.75H5.4375C4.02854 10.75 2.67728 10.1903 1.681 9.19401C0.684711 8.19772 0.125002 6.84646 0.125002 5.4375C0.125002 4.02854 0.684711 2.67728 1.681 1.681C2.67728 0.684708 4.02854 0.125 5.4375 0.125ZM8.25 8.25V5.4375C8.25 4.88124 8.08505 4.33747 7.77601 3.87496C7.46697 3.41245 7.02772 3.05196 6.5138 2.83909C5.99988 2.62622 5.43438 2.57052 4.88881 2.67904C4.34324 2.78756 3.8421 3.05543 3.44876 3.44876C3.05543 3.8421 2.78756 4.34324 2.67904 4.88881C2.57052 5.43438 2.62622 5.99988 2.83909 6.5138C3.05196 7.02771 3.41245 7.46697 3.87496 7.77601C4.33747 8.08505 4.88124 8.25 5.4375 8.25H8.25ZM5.4375 13.25H10.75V18.5625C10.75 19.6132 10.4384 20.6403 9.85468 21.514C9.27094 22.3876 8.44124 23.0685 7.47051 23.4706C6.49978 23.8727 5.43161 23.9779 4.40108 23.7729C3.37056 23.5679 2.42396 23.062 1.681 22.319C0.938031 21.576 0.432065 20.6294 0.227081 19.5989C0.0220966 18.5684 0.127302 17.5002 0.529392 16.5295C0.931483 15.5588 1.6124 14.7291 2.48604 14.1453C3.35967 13.5616 4.38679 13.25 5.4375 13.25ZM5.4375 15.75C4.88124 15.75 4.33747 15.915 3.87496 16.224C3.41245 16.533 3.05196 16.9723 2.83909 17.4862C2.62622 18.0001 2.57052 18.5656 2.67904 19.1112C2.78756 19.6568 3.05543 20.1579 3.44876 20.5512C3.8421 20.9446 4.34324 21.2124 4.88881 21.321C5.43438 21.4295 5.99988 21.3738 6.5138 21.1609C7.02772 20.948 7.46697 20.5876 7.77601 20.125C8.08505 19.6625 8.25 19.1188 8.25 18.5625V15.75H5.4375ZM18.5625 0.125C19.9715 0.125 21.3227 0.684708 22.319 1.681C23.3153 2.67728 23.875 4.02854 23.875 5.4375C23.875 6.84646 23.3153 8.19772 22.319 9.19401C21.3227 10.1903 19.9715 10.75 18.5625 10.75H13.25V5.4375C13.25 4.02854 13.8097 2.67728 14.806 1.681C15.8023 0.684708 17.1535 0.125 18.5625 0.125ZM18.5625 8.25C19.1188 8.25 19.6625 8.08505 20.125 7.77601C20.5876 7.46697 20.948 7.02771 21.1609 6.5138C21.3738 5.99988 21.4295 5.43438 21.321 4.88881C21.2124 4.34324 20.9446 3.8421 20.5512 3.44876C20.1579 3.05543 19.6568 2.78756 19.1112 2.67904C18.5656 2.57052 18.0001 2.62622 17.4862 2.83909C16.9723 3.05196 16.533 3.41245 16.224 3.87496C15.915 4.33747 15.75 4.88124 15.75 5.4375V8.25H18.5625ZM13.25 13.25H18.5625C19.6132 13.25 20.6403 13.5616 21.514 14.1453C22.3876 14.7291 23.0685 15.5588 23.4706 16.5295C23.8727 17.5002 23.9779 18.5684 23.7729 19.5989C23.5679 20.6294 23.062 21.576 22.319 22.319C21.576 23.062 20.6294 23.5679 19.5989 23.7729C18.5684 23.9779 17.5002 23.8727 16.5295 23.4706C15.5588 23.0685 14.7291 22.3876 14.1453 21.514C13.5616 20.6403 13.25 19.6132 13.25 18.5625V13.25ZM15.75 15.75V18.5625C15.75 19.1188 15.915 19.6625 16.224 20.125C16.533 20.5876 16.9723 20.948 17.4862 21.1609C18.0001 21.3738 18.5656 21.4295 19.1112 21.321C19.6568 21.2124 20.1579 20.9446 20.5512 20.5512C20.9446 20.1579 21.2124 19.6568 21.321 19.1112C21.4295 18.5656 21.3738 18.0001 21.1609 17.4862C20.948 16.9723 20.5876 16.533 20.125 16.224C19.6625 15.915 19.1188 15.75 18.5625 15.75H15.75Z" fill="#B2B7BD"/>
</svg>
