<svg width="134" height="134" viewBox="0 0 134 134" fill="none" xmlns="http://www.w3.org/2000/svg">
<path d="M30.25 0.5C34.1568 0.5 38.0254 1.26951 41.6348 2.76458C45.2443 4.25966 48.5239 6.45103 51.2864 9.21357C54.049 11.9761 56.2404 15.2557 57.7354 18.8652C59.2305 22.4746 60 26.3432 60 30.25V60H30.25C22.3598 60 14.7928 56.8656 9.21359 51.2864C3.63438 45.7072 0.500013 38.1402 0.500013 30.25C0.500013 22.3598 3.63438 14.7928 9.21359 9.21357C14.7928 3.63437 22.3598 0.5 30.25 0.5ZM30.25 74H60V103.75C60 109.634 58.2552 115.386 54.9862 120.278C51.7173 125.171 47.0709 128.984 41.6348 131.235C36.1987 133.487 30.217 134.076 24.4461 132.928C18.6751 131.78 13.3742 128.947 9.21359 124.786C5.05297 120.626 2.21956 115.325 1.07165 109.554C-0.076259 103.783 0.51289 97.8013 2.7646 92.3652C5.0163 86.9291 8.82943 82.2828 13.7218 79.0138C18.6142 75.7448 24.366 74 30.25 74ZM103.75 0.5C111.64 0.5 119.207 3.63437 124.786 9.21357C130.366 14.7928 133.5 22.3598 133.5 30.25C133.5 38.1402 130.366 45.7072 124.786 51.2864C119.207 56.8656 111.64 60 103.75 60H74V30.25C74 22.3598 77.1344 14.7928 82.7136 9.21357C88.2928 3.63437 95.8598 0.5 103.75 0.5ZM74 74H103.75C109.634 74 115.386 75.7448 120.278 79.0138C125.171 82.2828 128.984 86.9291 131.235 92.3652C133.487 97.8013 134.076 103.783 132.928 109.554C131.78 115.325 128.947 120.626 124.786 124.786C120.626 128.947 115.325 131.78 109.554 132.928C103.783 134.076 97.8013 133.487 92.3652 131.235C86.9291 128.984 82.2828 125.171 79.0138 120.278C75.7448 115.386 74 109.634 74 103.75V74Z" fill="#B2B7BD"/>
</svg>
