<svg width="39" height="36" viewBox="0 0 39 36" fill="none" xmlns="http://www.w3.org/2000/svg">
<path d="M8.96415 10.7915L11.1793 4.56788C11.6574 3.22375 12.5007 2.0678 13.5983 1.25237C14.6959 0.436939 15.9961 0.000301909 17.3277 0L35.8148 0C36.3342 0.00254614 36.8453 0.141841 37.3039 0.40585C37.7624 0.669859 38.1547 1.05064 38.4467 1.5153C38.7387 1.97996 38.9217 2.51453 38.9799 3.07281C39.0381 3.63109 38.9697 4.1963 38.7807 4.71961L36.5655 10.7915H8.96415ZM8.28237 12.7107L4.45746 23.4676H26.7325C28.3457 23.3177 29.8883 22.6846 31.1874 21.6394C32.4864 20.5941 33.4905 19.1781 34.0869 17.5501L35.8566 12.7107H8.28237ZM3.77568 25.3842L0 36H8.10761C9.04515 35.9999 9.96071 35.6929 10.7339 35.1194C11.5071 34.546 12.1017 33.7329 12.4395 32.787L15.0855 25.3842H3.77568Z" fill="url(#paint0_linear_751_43839)"/>
<defs>
<linearGradient id="paint0_linear_751_43839" x1="19.5036" y1="-1.38421" x2="19.5036" y2="37.3682" gradientUnits="userSpaceOnUse">
<stop stop-color="#2BB3F4"/>
<stop offset="1" stop-color="#3F64FA"/>
</linearGradient>
</defs>
</svg>
