<svg width="28" height="26" viewBox="0 0 28 26" fill="none" xmlns="http://www.w3.org/2000/svg">
<path d="M23.75 23.9999C23.75 24.3314 23.6183 24.6494 23.3839 24.8838C23.1495 25.1182 22.8315 25.2499 22.5 25.2499H5C4.66848 25.2499 4.35054 25.1182 4.11612 24.8838C3.8817 24.6494 3.75 24.3314 3.75 23.9999V12.7499H0L12.9087 1.0149C13.1389 0.805497 13.4389 0.689453 13.75 0.689453C14.0611 0.689453 14.3611 0.805497 14.5913 1.0149L27.5 12.7499H23.75V23.9999ZM13.75 17.7499C14.5788 17.7499 15.3737 17.4207 15.9597 16.8346C16.5458 16.2486 16.875 15.4537 16.875 14.6249C16.875 13.7961 16.5458 13.0012 15.9597 12.4152C15.3737 11.8291 14.5788 11.4999 13.75 11.4999C12.9212 11.4999 12.1263 11.8291 11.5403 12.4152C10.9542 13.0012 10.625 13.7961 10.625 14.6249C10.625 15.4537 10.9542 16.2486 11.5403 16.8346C12.1263 17.4207 12.9212 17.7499 13.75 17.7499Z" fill="url(#paint0_linear_1578_26046)"/>
<defs>
<linearGradient id="paint0_linear_1578_26046" x1="0.346639" y1="12.9697" x2="19.8906" y2="23.2231" gradientUnits="userSpaceOnUse">
<stop stop-color="#3E69FA"/>
<stop offset="1" stop-color="#2DAEF5"/>
</linearGradient>
</defs>
</svg>
