<svg width="20" height="27" viewBox="0 0 20 27" fill="none" xmlns="http://www.w3.org/2000/svg">
<path d="M7.4665 20.5002H12.534C12.699 18.9977 13.4653 17.7577 14.709 16.404C14.8503 16.2515 15.749 15.3202 15.8553 15.1877C16.7381 14.0848 17.2915 12.7549 17.4517 11.3512C17.6118 9.9475 17.3723 8.52713 16.7606 7.25364C16.1489 5.98014 15.1899 4.90531 13.9941 4.15293C12.7984 3.40055 11.4144 3.00122 10.0016 3.00092C8.58882 3.00062 7.20468 3.39936 6.00858 4.15123C4.81248 4.9031 3.85307 5.97752 3.24083 7.25075C2.62859 8.52398 2.38843 9.94425 2.548 11.348C2.70756 12.7517 3.26037 14.0819 4.14276 15.1852C4.25026 15.319 5.15151 16.2515 5.29026 16.4027C6.53526 17.7577 7.3015 18.9977 7.4665 20.5002ZM12.5003 23.0002H7.50026V24.2502H12.5003V23.0002ZM2.19276 16.7502C1.01549 15.2793 0.27769 13.5058 0.0643354 11.6339C-0.149019 9.76204 0.170755 7.86797 0.986822 6.16989C1.80289 4.47181 3.08205 3.0388 4.67695 2.03594C6.27185 1.03308 8.11761 0.501163 10.0016 0.501465C11.8856 0.501767 13.7312 1.03427 15.3258 2.03765C16.9204 3.04102 18.1991 4.47444 19.0146 6.17278C19.8301 7.87112 20.1493 9.7653 19.9353 11.6371C19.7214 13.5089 18.983 15.2822 17.8053 16.7527C17.0303 17.7177 15.0003 19.2502 15.0003 21.1252V24.2502C15.0003 24.9133 14.7369 25.5491 14.268 26.018C13.7992 26.4868 13.1633 26.7502 12.5003 26.7502H7.50026C6.83721 26.7502 6.20133 26.4868 5.73249 26.018C5.26365 25.5491 5.00026 24.9133 5.00026 24.2502V21.1252C5.00026 19.2502 2.96901 17.7177 2.19276 16.7502ZM11.2503 10.5052H14.3753L8.75026 18.0052V13.0052H5.62526L11.2503 5.50021V10.5065V10.5052Z" fill="#B2B7BD"/>
</svg>
