<svg width="27" height="24" viewBox="0 0 27 24" fill="none" xmlns="http://www.w3.org/2000/svg">
<path d="M1.75 23.25C1.41848 23.25 1.10054 23.1183 0.866116 22.8839C0.631696 22.6495 0.5 22.3315 0.5 22V2C0.5 1.66848 0.631696 1.35054 0.866116 1.11612C1.10054 0.881696 1.41848 0.75 1.75 0.75H11.0175L13.5175 3.25H23C23.3315 3.25 23.6495 3.3817 23.8839 3.61612C24.1183 3.85054 24.25 4.16848 24.25 4.5V8.25H21.75V5.75H12.4825L9.9825 3.25H3V18.2475L4.875 10.75H26.125L23.2375 22.3038C23.1698 22.5741 23.0137 22.814 22.794 22.9854C22.5743 23.1569 22.3037 23.25 22.025 23.25H1.75V23.25ZM22.9225 13.25H6.8275L4.9525 20.75H21.0475L22.9225 13.25Z" fill="#B2B7BD"/>
</svg>
